<?xml version="1.0" encoding="UTF-8" standalone="no"?>
<!-- Created with Inkscape (http://www.inkscape.org/) -->

<svg
   xmlns:dc="http://purl.org/dc/elements/1.1/"
   xmlns:cc="http://creativecommons.org/ns#"
   xmlns:rdf="http://www.w3.org/1999/02/22-rdf-syntax-ns#"
   xmlns:svg="http://www.w3.org/2000/svg"
   xmlns="http://www.w3.org/2000/svg"
   xmlns:sodipodi="http://sodipodi.sourceforge.net/DTD/sodipodi-0.dtd"
   xmlns:inkscape="http://www.inkscape.org/namespaces/inkscape"
   width="89.991325mm"
   height="33.928135mm"
   viewBox="0 0 89.991325 33.928135"
   version="1.1"
   id="svg8"
   inkscape:export-filename="/home/raphael/tmp.png"
   inkscape:export-xdpi="96"
   inkscape:export-ydpi="96"
   inkscape:version="0.92.4 (5da689c313, 2019-01-14)"
   sodipodi:docname="logo.svg">
  <defs
     id="defs2" />
  <sodipodi:namedview
     id="base"
     pagecolor="#ffffff"
     bordercolor="#666666"
     borderopacity="1.0"
     inkscape:pageopacity="0.0"
     inkscape:pageshadow="2"
     inkscape:zoom="1.979899"
     inkscape:cx="214.34225"
     inkscape:cy="108.00399"
     inkscape:document-units="mm"
     inkscape:current-layer="layer1"
     showgrid="false"
     inkscape:window-width="1920"
     inkscape:window-height="1019"
     inkscape:window-x="0"
     inkscape:window-y="0"
     inkscape:window-maximized="1">
    <inkscape:grid
       id="grid4541"
       type="xygrid"
       originx="-11.694606"
       originy="-249.65376" />
  </sodipodi:namedview>
  <metadata
     id="metadata5">
    <rdf:RDF>
      <cc:Work
         rdf:about="">
        <dc:format>image/svg+xml</dc:format>
        <dc:type
           rdf:resource="http://purl.org/dc/dcmitype/StillImage" />
        <dc:title />
      </cc:Work>
    </rdf:RDF>
  </metadata>
  <g
     inkscape:label="Layer 1"
     inkscape:groupmode="layer"
     id="layer1"
     transform="translate(-11.694606,-13.418116)">
    <text
       xml:space="preserve"
       style="font-style:normal;font-weight:normal;font-size:3.52777767px;line-height:1.25;font-family:sans-serif;letter-spacing:0px;word-spacing:0px;fill:#000000;fill-opacity:1;stroke:none;stroke-width:0.26458332"
       x="55.5625"
       y="29.770834"
       id="text4545"><tspan
         sodipodi:role="line"
         id="tspan4543"
         x="55.5625"
         y="32.89209"
         style="stroke-width:0.26458332" /></text>
    <text
       xml:space="preserve"
       style="font-style:normal;font-weight:normal;font-size:3.52777767px;line-height:1.25;font-family:sans-serif;letter-spacing:0px;word-spacing:0px;fill:#000000;fill-opacity:1;stroke:none;stroke-width:0.26458332"
       x="44.979168"
       y="9.927083"
       id="text4549"><tspan
         sodipodi:role="line"
         id="tspan4547"
         x="44.979168"
         y="13.04834"
         style="stroke-width:0.26458332" /></text>
    <g
       id="g4831"
       transform="translate(0.06681738,0.06681738)">
      <path
         transform="matrix(0.84208402,-0.48617744,0.48617744,0.84208402,-10.34978,16.830057)"
         d="M 43.171066,30.866367 34.447879,45.975371 H 17.001504 L 8.2783165,30.866367 17.001504,15.757363 l 17.446375,0 z"
         inkscape:randomized="0"
         inkscape:rounded="0"
         inkscape:flatsided="true"
         sodipodi:arg2="0.52359878"
         sodipodi:arg1="0"
         sodipodi:r2="15.109004"
         sodipodi:r1="17.446375"
         sodipodi:cy="30.866367"
         sodipodi:cx="25.724691"
         sodipodi:sides="6"
         id="path821"
         style="opacity:1;fill:#000000;fill-opacity:1;stroke:#000000;stroke-width:0;stroke-miterlimit:4;stroke-dasharray:none;stroke-dashoffset:0;stroke-opacity:1"
         sodipodi:type="star" />
      <path
         transform="matrix(0.7442444,-0.42968971,0.42968971,0.7442444,-6.0893149,18.396881)"
         d="M 43.171066,30.866367 34.447879,45.975371 H 17.001504 L 8.2783165,30.866367 17.001504,15.757363 l 17.446375,0 z"
         inkscape:randomized="0"
         inkscape:rounded="0"
         inkscape:flatsided="true"
         sodipodi:arg2="0.52359878"
         sodipodi:arg1="0"
         sodipodi:r2="15.109004"
         sodipodi:r1="17.446375"
         sodipodi:cy="30.866367"
         sodipodi:cx="25.724691"
         sodipodi:sides="6"
         id="path821-3"
         style="opacity:1;fill:#00a759;fill-opacity:1;stroke:#000000;stroke-width:0;stroke-miterlimit:4;stroke-dasharray:none;stroke-dashoffset:0;stroke-opacity:1"
         sodipodi:type="star" />
      <text
         id="text4553"
         y="37.516266"
         x="15.848659"
         style="font-style:normal;font-weight:normal;font-size:3.52777767px;line-height:1.25;font-family:sans-serif;letter-spacing:0px;word-spacing:0px;fill:#000000;fill-opacity:1;stroke:none;stroke-width:0.26458332"
         xml:space="preserve"><tspan
           style="font-size:19.75555611px;stroke-width:0.26458332"
           y="40.637524"
           x="15.848659"
           id="tspan4551"
           sodipodi:role="line" /></text>
      <text
         xml:space="preserve"
         style="font-style:normal;font-weight:normal;font-size:3.52777767px;line-height:1.25;font-family:sans-serif;letter-spacing:0px;word-spacing:0px;fill:#000000;fill-opacity:1;stroke:none;stroke-width:0.26458332"
         x="15.848659"
         y="37.516266"
         id="text905"><tspan
           sodipodi:role="line"
           id="tspan903"
           x="15.848659"
           y="40.637524"
           style="font-size:19.75555611px;stroke-width:0.26458332" /></text>
    </g>
    <flowRoot
       xml:space="preserve"
       id="flowRoot4557"
       style="font-style:normal;font-weight:normal;font-size:13.33333302px;line-height:1.25;font-family:sans-serif;letter-spacing:0px;word-spacing:0px;fill:#000000;fill-opacity:1;stroke:none"><flowRegion
         id="flowRegion4559"><rect
           id="rect4561"
           width="65"
           height="20"
           x="150"
           y="117.51968" /></flowRegion><flowPara
         id="flowPara4563" /></flowRoot>    <text
       xml:space="preserve"
       style="font-style:normal;font-weight:normal;font-size:3.52777767px;line-height:1.25;font-family:sans-serif;letter-spacing:0px;word-spacing:0px;fill:#00a759;fill-opacity:1;stroke:none;stroke-width:0.26458332"
       x="46.212021"
       y="37.817707"
       id="text4567"><tspan
         sodipodi:role="line"
         id="tspan4565"
         x="46.212021"
         y="37.817707"
         style="font-style:normal;font-variant:normal;font-weight:bold;font-stretch:normal;font-size:19.75555611px;font-family:'Bitstream Charter';-inkscape-font-specification:'Bitstream Charter';fill:#00a759;fill-opacity:1;stroke-width:0.26458332"
         dy="0 0 0 0 4.6799994"
         dx="0 0 0 0 0"><tspan
   style="font-style:normal;font-variant:normal;font-weight:bold;font-stretch:normal;font-family:'Bitstream Charter';-inkscape-font-specification:'Bitstream Charter';fill:#000000"
   id="tspan4825">C</tspan><tspan
   style="font-style:normal;font-variant:normal;font-weight:bold;font-stretch:normal;font-size:14.11111069px;font-family:'Bitstream Charter';-inkscape-font-specification:'Bitstream Charter';word-spacing:0px;fill:#000000;fill-opacity:1"
   id="tspan4609"
   dy="-4.6799994"
   dx="0">alc</tspan>US</tspan></text>
    <path
       style="font-style:normal;font-weight:normal;font-size:2050.27807617px;font-family:'Times New Roman';fill:#000000;fill-opacity:1;stroke:none;stroke-width:0.01301965px;stroke-linecap:butt;stroke-linejoin:miter;stroke-opacity:1"
       d="m 27.637197,30.77321 c 1.181745,7e-6 2.078926,-0.199851 2.691549,-0.599572 0.612588,-0.399701 1.020991,-0.886311 1.225203,-1.459824 0.204185,-0.573491 0.336705,-1.529326 0.397541,-2.867506 0.06083,-1.485876 0.393179,-2.591602 0.997113,-3.317187 0.603899,-0.72555 1.596663,-1.088335 2.978301,-1.088349 v 0.495299 c -0.49532,0.03477 -0.832032,0.228112 -1.010149,0.580013 -0.178153,0.351944 -0.267215,1.097059 -0.267201,2.235353 0,1.668384 -0.175972,2.95659 -0.527881,3.864619 -0.351936,0.908058 -1.057955,1.644484 -2.118043,2.209287 -1.060122,0.564824 -2.515605,0.868954 -4.366433,0.912391 v 4.13182 c -1.4e-5,1.016665 0.05863,1.674885 0.175958,1.974667 0.117296,0.29979 0.364945,0.540917 0.742948,0.723397 0.377975,0.18248 0.962337,0.273716 1.753091,0.273716 v 0.482262 h -7.846548 v -0.482262 c 0.773349,-0.0087 1.349028,-0.09341 1.727024,-0.254164 0.377982,-0.160755 0.629973,-0.395367 0.755979,-0.703846 0.125984,-0.308471 0.188987,-0.979728 0.188994,-2.01377 v -4.13182 c -1.868234,-0.04341 -3.319361,-0.343227 -4.353403,-0.899354 -1.034042,-0.556114 -1.735713,-1.283852 -2.105007,-2.183221 -0.369307,-0.89934 -0.553953,-2.204924 -0.553953,-3.916752 0,-1.094849 -0.08255,-1.822587 -0.24765,-2.18322 -0.165095,-0.36059 -0.508329,-0.566962 -1.029694,-0.619116 v -0.495299 c 0.877629,0.01742 1.585815,0.156427 2.124565,0.417092 0.538736,0.260701 0.971039,0.721237 1.296895,1.381617 0.325849,0.660408 0.510496,1.529355 0.553947,2.606827 0.06083,1.329491 0.188995,2.280985 0.384511,2.854477 0.195502,0.573505 0.60608,1.062289 1.231726,1.466338 0.625631,0.404062 1.524986,0.606094 2.698063,0.606087 v -5.68288 c -7e-6,-1.01665 -0.05863,-1.67487 -0.175965,-1.974674 -0.11731,-0.299768 -0.362785,-0.536555 -0.736426,-0.71036 -0.373648,-0.17377 -0.960184,-0.265006 -1.759606,-0.273716 v -0.482262 h 7.846548 v 0.482262 c -0.799443,0.0087 -1.385978,0.09777 -1.759613,0.267201 -0.373655,0.169457 -0.61913,0.406244 -0.736426,0.71036 -0.117317,0.304145 -0.175972,0.964539 -0.175958,1.981189 z"
       id="text2175"
       inkscape:connector-curvature="0"
       sodipodi:nodetypes="csccccccccsccccccccccccccccccccccccccccccccccc" />
    <flowRoot
       xml:space="preserve"
       id="flowRoot1500"
       style="font-style:normal;font-weight:normal;font-size:13.33333302px;line-height:1.25;font-family:sans-serif;letter-spacing:0px;word-spacing:0px;fill:#000000;fill-opacity:1;stroke:none"><flowRegion
         id="flowRegion1502"><rect
           id="rect1504"
           width="136.46765"
           height="263.18188"
           x="51.42857"
           y="-97.480316" /></flowRegion><flowPara
         id="flowPara1506" /></flowRoot>  </g>
</svg>
